<?xml version="1.0"?>
<svg version="1.1" xmlns="http://www.w3.org/2000/svg" width="400px" height="200px" style="border: dashed 2px #aaa"><path fill="#fd3a02" d="M120.8935546875,94.931640625q0-0.6884765625,0.16845703125-1.00341796875t0.4833984375-0.439453125t0.76171875-0.09521484375t1.04736328125,0.029296875q1.5234375,0,3.076171875,0.46875t2.7978515625,1.36962890625t2.0068359375,2.21923828125t0.76171875,3.0322265625q0,1.142578125-0.32958984375,2.16064453125t-0.93017578125,1.904296875t-1.40625,1.61865234375t-1.7724609375,1.2744140625q0.3955078125,0.3955078125,1.025390625,1.39892578125t1.2451171875,2.138671875t1.09130859375,2.20458984375t0.56396484375,1.611328125l-0.17578125,0.263671875q-0.3955078125,0.234375-0.9521484375,0.2490234375q-0.263671875,0-0.6884765625-0.06591796875t-0.5419921875-0.38818359375q-0.6005859375-1.6845703125-1.31103515625-3.4716796875t-1.75048828125-3.22265625l0-0.029296875q-0.3662109375,0.146484375-0.72509765625,0.28564453125t-0.72509765625,0.25634765625q0.1171875,1.6259765625,0.24169921875,3.20068359375t0.12451171875,3.18603515625q0,0.205078125-0.19775390625,0.32958984375t-0.44677734375,0.19775390625t-0.50537109375,0.1025390625t-0.41748046875,0.029296875q-0.146484375,0-0.41748046875-0.029296875t-0.52001953125-0.1025390625t-0.43212890625-0.21240234375t-0.18310546875-0.37353515625q0-1.6259765625-0.0732421875-3.24462890625t-0.1611328125-3.22998046875q-0.4541015625-0.29296875-0.4541015625-0.76171875q0-0.3662109375,0.3515625-0.498046875q-0.17578125-3.0908203125-0.40283203125-6.1669921875t-0.22705078125-6.1962890625z M123.544921875,94.4775390625q0.205078125,3.1787109375,0.46142578125,6.2841796875t0.49072265625,6.2841796875q1.025390625-0.29296875,1.91162109375-1.01806640625t1.53076171875-1.63330078125t1.00341796875-1.9775390625t0.35888671875-2.1240234375q0-1.171875-0.46875-2.24853515625t-1.2451171875-1.88232421875q-0.791015625-0.8056640625-1.81640625-1.259765625q-0.908203125-0.3955078125-1.904296875-0.3955078125l-0.263671875,0z M134.99516601562,113.41796875q0.029296875-0.615234375,0.029296875-1.201171875q0-2.1240234375,0.15380859375-4.2333984375t0.21240234375-4.2333984375q0.087890625-2.431640625,0.1611328125-4.8193359375t0.29296875-4.8046875q0.05859375-0.6005859375,0.34423828125-0.78369140625t0.85693359375-0.18310546875q0.263671875,0,0.703125,0.1025390625t0.439453125,0.498046875q0.205078125,0.029296875,0.41015625,0.029296875q0.3076171875,0,0.6298828125-0.05859375q0.52734375-0.087890625,1.07666015625-0.19775390625t1.09130859375-0.21240234375t1.0400390625-0.1025390625q0.1171875,0,0.32958984375,0.0146484375t0.4248046875,0.087890625t0.35888671875,0.18310546875t0.146484375,0.28564453125t-0.34423828125,0.31494140625t-0.90087890625,0.24169921875t-1.201171875,0.17578125t-1.259765625,0.12451171875t-1.09130859375,0.08056640625t-0.68115234375,0.029296875l-0.029296875,5.5078125l0.029296875,2.7392578125q0.4541015625,0,1.3623046875-0.029296875q0.3662109375-0.0146484375,0.732421875-0.0146484375q0.556640625,0,1.142578125,0.029296875q0.966796875,0.0439453125,1.7431640625,0.17578125t0.9814453125,0.46875q0,0.205078125-0.21240234375,0.32958984375t-0.47607421875,0.18310546875t-0.53466796875,0.0732421875t-0.38818359375,0.0146484375q-1.083984375,0-2.1826171875-0.0439453125t-2.16796875-0.17578125q0,1.8017578125-0.09521484375,3.57421875t-0.09521484375,3.57421875q0,0.7763671875,0.0146484375,1.53076171875t0.17578125,1.50146484375q0.3955078125-0.029296875,0.85693359375-0.0732421875t0.9375-0.10986328125t0.91552734375-0.10986328125t0.76171875-0.0439453125q0.17578125,0,0.47607421875,0.0439453125t0.615234375,0.146484375t0.5419921875,0.25634765625t0.22705078125,0.35888671875q0,0.234375-0.43212890625,0.41748046875t-1.10595703125,0.29296875t-1.47216796875,0.15380859375t-1.54541015625,0.05859375t-1.34765625,0.0146484375l-0.849609375,0q-0.8056640625,0-1.17919921875-0.30029296875t-0.52001953125-0.78369140625q-0.1171875-0.3955078125-0.1025390625-0.8935546875l0-0.205078125z M147.17783203125,94.6240234375q0-1.025390625,0.3515625-1.376953125t0.9814453125-0.3515625q0.17578125,0,0.37353515625,0.029296875t0.37353515625,0.087890625q0.9814453125-0.1904296875,1.8603515625-0.1904296875q1.4208984375,0,2.578125,0.498046875q1.8603515625,0.791015625,3.076171875,2.34375t1.787109375,3.6474609375t0.5712890625,4.2919921875q0,1.23046875-0.16845703125,2.5634765625t-0.65185546875,2.4755859375q-0.4248046875,1.025390625-1.171875,2.14599609375t-1.69189453125,2.1240234375t-2.0361328125,1.7578125t-2.20458984375,1.01806640625l0,0.1171875q0,0.29296875-0.15380859375,0.47607421875t-0.37353515625,0.2783203125t-0.50537109375,0.12451171875t-0.53466796875,0.029296875q-0.146484375,0-0.41748046875-0.029296875t-0.52734375-0.10986328125t-0.43212890625-0.21240234375t-0.17578125-0.3662109375q0-2.666015625-0.13916015625-5.33935546875t-0.31494140625-5.3466796875t-0.31494140625-5.33935546875t-0.13916015625-5.3466796875z M149.94638671875,93.876953125q0.146484375,1.40625,0.1904296875,2.80517578125t0.1318359375,2.80517578125q0.234375,3.6328125,0.5419921875,7.22900390625t0.3662109375,7.22900390625q1.40625-0.9228515625,2.40966796875-2.109375t1.64794921875-2.578125t0.94482421875-2.92236328125t0.30029296875-3.15673828125q0-1.171875-0.205078125-2.578125t-0.703125-2.7099609375t-1.34033203125-2.3583984375t-2.10205078125-1.5087890625q-0.263671875-0.087890625-0.63720703125-0.146484375t-1.19384765625-0.05859375q-0.087890625,0-0.17578125,0.029296875t-0.17578125,0.029296875z M162.14370117187,102.51953125q0-0.966796875,0.08056640625-2.11669921875t0.28564453125-2.30712890625t0.615234375-2.23388671875t1.0546875-1.9189453125t1.57470703125-1.34033203125t2.21923828125-0.498046875q1.025390625,0,1.8896484375,0.3955078125t1.5087890625,1.0693359375t1.00341796875,1.57470703125t0.35888671875,1.88232421875q0,0.263671875-0.35888671875,0.32958984375t-0.50537109375,0.06591796875q-0.263671875,0-0.50537109375-0.0439453125t-0.35888671875-0.3515625q-0.205078125-0.5712890625-0.43212890625-1.201171875t-0.556640625-1.14990234375t-0.81298828125-0.85693359375q-0.439453125-0.29296875-1.11328125-0.29296875l-0.1171875,0q-1.23046875,0.029296875-1.8310546875,0.87890625t-0.82763671875,2.0654296875t-0.22705078125,2.578125l0,2.4169921875q0,0.6005859375,0.0439453125,1.7431640625t0.21240234375,2.490234375t0.439453125,2.74658203125t0.732421875,2.548828125t1.10595703125,1.875t1.552734375,0.72509765625q0.8056640625,0,1.40625-0.556640625t1.03271484375-1.42822265625t0.732421875-1.9482421875t0.498046875-2.16064453125t0.30029296875-2.01416015625t0.1611328125-1.53076171875q-0.1611328125-0.0146484375-0.3076171875-0.0146484375q-0.6884765625,0-1.34765625,0.2197265625q-0.8349609375,0.2490234375-1.669921875,0.2490234375q-0.1171875,0-0.31494140625-0.0146484375t-0.37353515625-0.0732421875t-0.31494140625-0.16845703125t-0.13916015625-0.28564453125q0-0.3369140625,0.73974609375-0.5712890625t1.6845703125-0.40283203125t1.82373046875-0.24169921875t1.1572265625-0.0732421875q0.146484375,0,0.41748046875,0.029296875t0.5419921875,0.1025390625t0.46142578125,0.21240234375t0.1904296875,0.34423828125q0,0.17578125-0.1318359375,0.31494140625t-0.32958984375,0.21240234375t-0.40283203125,0.1025390625t-0.322265625,0.029296875q0.0146484375,0.3369140625,0.0146484375,0.6884765625q0,0.791015625-0.0439453125,1.6845703125q-0.0732421875,1.2890625-0.29296875,2.578125t-0.673828125,2.5048828125t-1.1572265625,2.14599609375t-1.73583984375,1.50146484375t-2.45361328125,0.5712890625q-1.552734375,0-2.6220703125-0.6591796875t-1.7431640625-1.7578125t-1.04736328125-2.490234375t-0.53466796875-2.84912109375t-0.19775390625-2.83447265625t-0.03662109375-2.490234375z M178.852734375,94.931640625q0-0.6884765625,0.16845703125-1.00341796875t0.4833984375-0.439453125t0.76171875-0.09521484375t1.04736328125,0.029296875q1.5234375,0,3.076171875,0.46875t2.7978515625,1.36962890625t2.0068359375,2.21923828125t0.76171875,3.0322265625q0,1.142578125-0.32958984375,2.16064453125t-0.93017578125,1.904296875t-1.40625,1.61865234375t-1.7724609375,1.2744140625q0.3955078125,0.3955078125,1.025390625,1.39892578125t1.2451171875,2.138671875t1.09130859375,2.20458984375t0.56396484375,1.611328125l-0.17578125,0.263671875q-0.3955078125,0.234375-0.9521484375,0.2490234375q-0.263671875,0-0.6884765625-0.06591796875t-0.5419921875-0.38818359375q-0.6005859375-1.6845703125-1.31103515625-3.4716796875t-1.75048828125-3.22265625l0-0.029296875q-0.3662109375,0.146484375-0.72509765625,0.28564453125t-0.72509765625,0.25634765625q0.1171875,1.6259765625,0.24169921875,3.20068359375t0.12451171875,3.18603515625q0,0.205078125-0.19775390625,0.32958984375t-0.44677734375,0.19775390625t-0.50537109375,0.1025390625t-0.41748046875,0.029296875q-0.146484375,0-0.41748046875-0.029296875t-0.52001953125-0.1025390625t-0.43212890625-0.21240234375t-0.18310546875-0.37353515625q0-1.6259765625-0.0732421875-3.24462890625t-0.1611328125-3.22998046875q-0.4541015625-0.29296875-0.4541015625-0.76171875q0-0.3662109375,0.3515625-0.498046875q-0.17578125-3.0908203125-0.40283203125-6.1669921875t-0.22705078125-6.1962890625z M181.5041015625,94.4775390625q0.205078125,3.1787109375,0.46142578125,6.2841796875t0.49072265625,6.2841796875q1.025390625-0.29296875,1.91162109375-1.01806640625t1.53076171875-1.63330078125t1.00341796875-1.9775390625t0.35888671875-2.1240234375q0-1.171875-0.46875-2.24853515625t-1.2451171875-1.88232421875q-0.791015625-0.8056640625-1.81640625-1.259765625q-0.908203125-0.3955078125-1.904296875-0.3955078125l-0.263671875,0z M192.86645507812,114.6630859375q0-0.087890625,0.05859375-0.62255859375t0.15380859375-1.3037109375t0.21240234375-1.6552734375t0.205078125-1.67724609375t0.15380859375-1.3916015625t0.06591796875-0.8056640625q-0.1171875-0.05859375-0.28564453125-0.16845703125t-0.16845703125-0.25634765625q0-0.205078125,0.19775390625-0.32958984375t0.34423828125-0.18310546875q0.05859375-0.7470703125,0.146484375-2.080078125t0.27099609375-2.87841796875t0.5126953125-3.134765625t0.87158203125-2.8857421875t1.3037109375-2.11669921875t1.875-0.8203125t1.845703125,0.703125t1.19384765625,1.8310546875t0.703125,2.5048828125t0.3662109375,2.7392578125t0.15380859375,2.548828125t0.05859375,1.904296875q0.029296875,0.4541015625,0.2197265625,0.60791015625t0.41748046875,0.21240234375t0.41015625,0.1318359375t0.18310546875,0.3662109375q0,0.3369140625-0.41015625,0.46875t-0.64453125,0.1611328125q0.146484375,1.8310546875,0.40283203125,3.603515625t0.68115234375,3.57421875q0.05859375,0.3369140625,0.1611328125,0.68115234375t0.1025390625,0.66650390625q0,0.234375-0.1611328125,0.38818359375t-0.41748046875,0.24169921875t-0.5126953125,0.1171875t-0.43212890625,0.029296875q-0.6591796875,0-1.11328125-0.2490234375t-0.6005859375-0.9521484375q-0.3955078125-1.8896484375-0.7763671875-3.9697265625q-0.322265625-1.8017578125-0.322265625-3.5009765625q0-0.263671875,0.0146484375-0.52734375q-1.23046875,0-2.4755859375,0.05859375t-2.3876953125,0.439453125q-0.029296875,0.3955078125-0.146484375,1.494140625t-0.263671875,2.3583984375t-0.30029296875,2.40966796875t-0.18310546875,1.63330078125q-0.029296875,0.205078125-0.30029296875,0.38818359375t-0.5859375,0.19775390625t-0.556640625-0.19775390625t-0.24169921875-0.75439453125z M195.60571289062,105.7861328125q1.142578125-0.263671875,2.29248046875-0.3076171875t2.32177734375-0.1025390625q-0.05859375-0.3662109375-0.029296875-0.75439453125t0.029296875-0.78369140625q0-0.8642578125-0.0439453125-2.0068359375t-0.1318359375-2.314453125t-0.22705078125-2.30712890625t-0.31494140625-2.021484375t-0.37353515625-1.41357421875t-0.43212890625-0.52734375q-0.4541015625,0.029296875-0.85693359375,0.78369140625t-0.732421875,1.9189453125t-0.6005859375,2.607421875t-0.4541015625,2.81982421875t-0.30029296875,2.5634765625t-0.146484375,1.845703125z M207.65654296875,112.626953125q-0.0146484375-0.439453125-0.0146484375-0.87890625q0-1.376953125,0.146484375-2.7685546875q0.17578125-1.845703125,0.234375-3.6328125q0.05859375-2.0947265625,0.17578125-4.3505859375q0.0732421875-1.23046875,0.0732421875-2.431640625q0-0.9814453125-0.0439453125-1.9482421875q0.146484375-0.3369140625,0.38818359375-0.4541015625t0.60791015625-0.1171875q0.17578125,0,0.37353515625,0.029296875t0.34423828125,0.146484375q0.205078125,0.029296875,0.50537109375,0.05859375t0.46142578125,0.17578125q0.05859375,0.087890625,0.30029296875,0.6005859375t0.5712890625,1.2451171875t0.6884765625,1.58935546875t0.6884765625,1.6259765625t0.5712890625,1.35498046875t0.30029296875,0.732421875q1.376953125-2.490234375,2.6953125-5.11962890625t2.8857421875-4.95849609375q0.146484375-0.205078125,0.50537109375-0.30029296875t0.59326171875-0.09521484375q0.6298828125,0,0.91552734375,0.30029296875t0.37353515625,0.76904296875q0.05859375,0.29296875,0.0732421875,0.6298828125q0.0146484375,0.17578125-0.0146484375,0.3662109375q-0.05859375,0.5419921875-0.05859375,1.025390625q0,3.4130859375-0.234375,6.77490234375t-0.4248046875,6.78955078125q-0.029296875,0.703125-0.029296875,1.46484375t0.029296875,1.58203125q0.0146484375,0.29296875,0.0146484375,0.5712890625q0,1.2890625-0.2197265625,2.40234375q-0.205078125,0.3369140625-0.673828125,0.4248046875t-0.791015625,0.087890625q-0.6884765625,0-1.318359375-0.322265625l-0.1611328125-0.1904296875l-0.05859375-0.234375t-0.029296875-0.234375q0-2.1240234375,0.15380859375-4.27734375t0.34423828125-4.29931640625t0.40283203125-4.28466796875t0.35888671875-4.27734375q-0.8642578125,1.435546875-1.67724609375,2.92236328125t-1.53076171875,3.02490234375q-0.263671875,0.6005859375-0.50537109375,1.2890625t-0.57861328125,1.23046875q-0.17578125,0.263671875-0.59326171875,0.322265625t-0.72509765625,0.05859375q-0.29296875,0-0.60791015625-0.1025390625t-0.43212890625-0.439453125q-0.5419921875-1.6552734375-1.1572265625-3.2373046875t-1.2451171875-3.2080078125q0,1.083984375,0.0439453125,2.80517578125t0.0439453125,3.56689453125t-0.05859375,3.5302734375t-0.2783203125,2.666015625q-0.05859375,0.3662109375-0.47607421875,0.4541015625t-0.72509765625,0.087890625q-0.234375,0-0.44677734375-0.029296875t-0.41748046875-0.1171875z M225.05405273438,114.794921875q0.05859375-3.0615234375,0.25634765625-6.1083984375t0.34423828125-6.1083984375q0.029296875-1.171875,0.029296875-2.13134765625t0.09521484375-1.66259765625t0.3515625-1.07666015625t0.85693359375-0.37353515625q0.5126953125,0,0.7763671875,0.146484375t0.40283203125,0.37353515625t0.16845703125,0.5126953125t0.029296875,0.57861328125q0,0.4248046875,0.029296875,0.84228515625t0.029296875,0.84228515625q0,3.0908203125-0.16845703125,6.1669921875t-0.16845703125,6.1962890625q0,0.4541015625,0.0146484375,0.91552734375t0.0146484375,0.94482421875q0,0.17578125-0.1611328125,0.29296875t-0.40283203125,0.19775390625t-0.5126953125,0.10986328125t-0.44677734375,0.029296875q-0.205078125,0-0.46142578125-0.029296875t-0.498046875-0.12451171875t-0.41015625-0.22705078125t-0.16845703125-0.3076171875z M225.87436523438,94.931640625q0-0.146484375,0.0439453125-0.32958984375t0.1025390625-0.32958984375q0.029296875-0.17578125,0.087890625-0.6005859375t0.21240234375-0.82763671875t0.4248046875-0.7177734375t0.76904296875-0.31494140625l0.2783203125,0q0.234375,0.05859375,0.47607421875,0.146484375t0.24169921875,0.4248046875q0,0.146484375-0.0146484375,0.2783203125t-0.0439453125,0.29296875q-0.1171875,0.8642578125-0.22705078125,1.3623046875t-0.25634765625,0.75439453125t-0.37353515625,0.32958984375t-0.57861328125,0.1025390625q-0.1171875,0-0.31494140625-0.0146484375t-0.380859375-0.0732421875t-0.31494140625-0.18310546875t-0.1318359375-0.30029296875z M231.5091796875,95.8251953125q0-0.17578125,0.16845703125-0.263671875t0.3662109375-0.1318359375t0.35888671875-0.0439453125l0.1611328125,0q0.5126953125,0,0.73974609375,0.234375t0.54931640625,0.6005859375q2.197265625,3.1787109375,4.0283203125,6.54052734375t3.5302734375,6.80419921875q0.146484375-4.013671875,0.30029296875-8.07861328125t0.38818359375-8.06396484375q0-0.17578125,0.16845703125-0.29296875t0.380859375-0.17578125t0.43212890625-0.0732421875t0.3369140625-0.0146484375q0.17578125,0,0.38818359375,0.0146484375t0.4248046875,0.087890625t0.3515625,0.17578125t0.13916015625,0.2783203125q0.05859375,0.6298828125,0.06591796875,1.26708984375t0.00732421875,1.26708984375q0,4.716796875-0.205078125,9.2431640625t-0.205078125,9.140625l0,1.0546875q0,0.05859375-0.05859375,0.17578125q0.029296875,0.1171875,0.087890625,0.25634765625t0.05859375,0.19775390625q0,0.234375-0.24169921875,0.3515625t-0.52734375,0.18310546875t-0.50537109375,0.06591796875t-0.1611328125,0q-0.7470703125,0-1.259765625-0.41015625t-0.5126953125-0.9814453125q-1.083984375-2.431640625-2.16064453125-4.82666015625t-2.24853515625-4.76806640625q-0.7470703125-1.494140625-1.50146484375-2.99560546875t-1.61865234375-2.90771484375q0.029296875,0.029296875,0.029296875,0.087890625q0.146484375,1.46484375,0.31494140625,2.92236328125t0.25634765625,2.92236328125q0.05859375,1.259765625,0.1318359375,2.548828125t0.234375,2.548828125q0,0.4833984375-0.30029296875,0.615234375t-0.69580078125,0.1318359375q-0.3369140625,0-0.63720703125-0.087890625t-0.35888671875-0.439453125q0-1.34765625-0.1025390625-2.86376953125t-0.1904296875-3.05419921875q-0.146484375-2.0361328125-0.38818359375-4.13818359375t-0.24169921875-4.10888671875q0-0.087890625,0.0146484375-0.18310546875t0.0146484375-0.21240234375q-0.087890625-0.146484375-0.19775390625-0.3076171875t-0.10986328125-0.29296875z M246.88520507813,94.1552734375q0-0.205078125,0.28564453125-0.31494140625t0.37353515625-0.10986328125l0.5419921875-0.087890625q0.5419921875-0.087890625,1.0986328125-0.15380859375t1.083984375-0.12451171875q1.8603515625-0.234375,3.720703125-0.46142578125t3.75-0.22705078125q0.146484375,0,0.40283203125,0.0146484375t0.5126953125,0.08056640625t0.439453125,0.18310546875t0.18310546875,0.322265625q0,0.146484375-0.13916015625,0.25634765625t-0.32958984375,0.16845703125t-0.38818359375,0.0732421875t-0.31494140625,0.0146484375l-0.25634765625,0t-0.25634765625-0.05859375q-0.7763671875,0-1.53076171875,0.0732421875t-1.53076171875,0.1318359375q0.205078125,0.234375,0.2197265625,0.6591796875t0.029296875,0.732421875q0,5.185546875,0.0732421875,10.3125t0.1318359375,10.3564453125l0,0.029296875q-0.4833984375,0.4248046875-0.82763671875,0.5419921875t-0.69580078125,0.1171875q-0.3369140625,0-0.68115234375-0.12451171875t-0.82763671875-0.53466796875l0-0.029296875l0.1171875-11.4990234375q0-1.142578125-0.029296875-2.51953125t-0.029296875-2.79052734375t0.0439453125-2.73193359375t0.234375-2.2998046875q-0.8642578125,0.087890625-1.8310546875,0.263671875q-0.8349609375,0.146484375-1.5966796875,0.146484375l-0.263671875,0q-0.05859375,0-0.34423828125,0.0146484375t-0.5859375-0.0146484375t-0.5419921875-0.1171875t-0.24169921875-0.29296875z"/><path fill="#" d=""/></svg>
