<?xml version="1.0"?>
<svg version="1.1" xmlns="http://www.w3.org/2000/svg" width="400px" height="200px" style=""><path fill="#fd3a02" d="M26.23388671875,87.3291015625q0-1.72119140625,0.421142578125-2.508544921875t1.20849609375-1.0986328125t1.904296875-0.238037109375t2.618408203125,0.0732421875q3.80859375,0,7.6904296875,1.171875t6.99462890625,3.424072265625t5.01708984375,5.548095703125t1.904296875,7.58056640625q0,2.8564453125-0.823974609375,5.401611328125t-2.325439453125,4.7607421875t-3.515625,4.046630859375t-4.43115234375,3.18603515625q0.98876953125,0.98876953125,2.5634765625,3.497314453125t3.11279296875,5.3466796875t2.728271484375,5.511474609375t1.409912109375,4.0283203125l-0.439453125,0.6591796875q-0.98876953125,0.5859375-2.38037109375,0.62255859375q-0.6591796875,0-1.72119140625-0.164794921875t-1.35498046875-0.970458984375q-1.50146484375-4.21142578125-3.277587890625-8.67919921875t-4.376220703125-8.056640625l0-0.0732421875q-0.91552734375,0.3662109375-1.812744140625,0.714111328125t-1.812744140625,0.640869140625q0.29296875,4.06494140625,0.604248046875,8.001708984375t0.311279296875,7.965087890625q0,0.5126953125-0.494384765625,0.823974609375t-1.116943359375,0.494384765625t-1.263427734375,0.25634765625t-1.043701171875,0.0732421875q-0.3662109375,0-1.043701171875-0.0732421875t-1.300048828125-0.25634765625t-1.080322265625-0.531005859375t-0.457763671875-0.933837890625q0-4.06494140625-0.18310546875-8.111572265625t-0.40283203125-8.074951171875q-1.13525390625-0.732421875-1.13525390625-1.904296875q0-0.91552734375,0.87890625-1.2451171875q-0.439453125-7.72705078125-1.007080078125-15.41748046875t-0.567626953125-15.49072265625z M32.8623046875,86.19384765625q0.5126953125,7.94677734375,1.153564453125,15.71044921875t1.226806640625,15.71044921875q2.5634765625-0.732421875,4.779052734375-2.545166015625t3.826904296875-4.083251953125t2.508544921875-4.94384765625t0.897216796875-5.31005859375q0-2.9296875-1.171875-5.621337890625t-3.11279296875-4.705810546875q-1.9775390625-2.01416015625-4.541015625-3.1494140625q-2.2705078125-0.98876953125-4.7607421875-0.98876953125l-0.6591796875,0z M61.487915039062,133.544921875q0.0732421875-1.5380859375,0.0732421875-3.0029296875q0-5.31005859375,0.384521484375-10.58349609375t0.531005859375-10.58349609375q0.2197265625-6.0791015625,0.40283203125-12.04833984375t0.732421875-12.01171875q0.146484375-1.50146484375,0.860595703125-1.959228515625t2.142333984375-0.457763671875q0.6591796875,0,1.7578125,0.25634765625t1.0986328125,1.2451171875q0.5126953125,0.0732421875,1.025390625,0.0732421875q0.76904296875,0,1.57470703125-0.146484375q1.318359375-0.2197265625,2.691650390625-0.494384765625t2.728271484375-0.531005859375t2.60009765625-0.25634765625q0.29296875,0,0.823974609375,0.03662109375t1.06201171875,0.2197265625t0.897216796875,0.457763671875t0.3662109375,0.714111328125t-0.860595703125,0.787353515625t-2.252197265625,0.604248046875t-3.0029296875,0.439453125t-3.1494140625,0.311279296875t-2.728271484375,0.201416015625t-1.702880859375,0.0732421875l-0.0732421875,13.76953125l0.0732421875,6.84814453125q1.13525390625,0,3.40576171875-0.0732421875q0.91552734375-0.03662109375,1.8310546875-0.03662109375q1.3916015625,0,2.8564453125,0.0732421875q2.4169921875,0.10986328125,4.35791015625,0.439453125t2.45361328125,1.171875q0,0.5126953125-0.531005859375,0.823974609375t-1.190185546875,0.457763671875t-1.336669921875,0.18310546875t-0.970458984375,0.03662109375q-2.7099609375,0-5.45654296875-0.10986328125t-5.419921875-0.439453125q0,4.50439453125-0.238037109375,8.935546875t-0.238037109375,8.935546875q0,1.94091796875,0.03662109375,3.826904296875t0.439453125,3.753662109375q0.98876953125-0.0732421875,2.142333984375-0.18310546875t2.34375-0.274658203125t2.288818359375-0.274658203125t1.904296875-0.10986328125q0.439453125,0,1.190185546875,0.10986328125t1.5380859375,0.3662109375t1.35498046875,0.640869140625t0.567626953125,0.897216796875q0,0.5859375-1.080322265625,1.043701171875t-2.764892578125,0.732421875t-3.680419921875,0.384521484375t-3.863525390625,0.146484375t-3.369140625,0.03662109375l-2.1240234375,0q-2.01416015625,0-2.947998046875-0.750732421875t-1.300048828125-1.959228515625q-0.29296875-0.98876953125-0.25634765625-2.23388671875l0-0.5126953125z M91.944580078125,86.56005859375q0-2.5634765625,0.87890625-3.4423828125t2.45361328125-0.87890625q0.439453125,0,0.933837890625,0.0732421875t0.933837890625,0.2197265625q2.45361328125-0.47607421875,4.65087890625-0.47607421875q3.55224609375,0,6.4453125,1.2451171875q4.65087890625,1.9775390625,7.6904296875,5.859375t4.4677734375,9.11865234375t1.42822265625,10.72998046875q0,3.076171875-0.421142578125,6.40869140625t-1.629638671875,6.18896484375q-1.06201171875,2.5634765625-2.9296875,5.364990234375t-4.229736328125,5.31005859375t-5.09033203125,4.39453125t-5.511474609375,2.545166015625l0,0.29296875q0,0.732421875-0.384521484375,1.190185546875t-0.933837890625,0.69580078125t-1.263427734375,0.311279296875t-1.336669921875,0.0732421875q-0.3662109375,0-1.043701171875-0.0732421875t-1.318359375-0.274658203125t-1.080322265625-0.531005859375t-0.439453125-0.91552734375q0-6.6650390625-0.347900390625-13.348388671875t-0.787353515625-13.36669921875t-0.787353515625-13.348388671875t-0.347900390625-13.36669921875z M98.865966796875,84.6923828125q0.3662109375,3.515625,0.47607421875,7.012939453125t0.32958984375,7.012939453125q0.5859375,9.08203125,1.35498046875,18.072509765625t0.91552734375,18.072509765625q3.515625-2.30712890625,6.024169921875-5.2734375t4.119873046875-6.4453125t2.362060546875-7.305908203125t0.750732421875-7.891845703125q0-2.9296875-0.5126953125-6.4453125t-1.7578125-6.77490234375t-3.350830078125-5.89599609375t-5.255126953125-3.77197265625q-0.6591796875-0.2197265625-1.593017578125-0.3662109375t-2.984619140625-0.146484375q-0.2197265625,0-0.439453125,0.0732421875t-0.439453125,0.0732421875z M129.35925292969,106.298828125q0-2.4169921875,0.201416015625-5.291748046875t0.714111328125-5.767822265625t1.5380859375-5.584716796875t2.63671875-4.79736328125t3.936767578125-3.350830078125t5.548095703125-1.2451171875q2.5634765625,0,4.72412109375,0.98876953125t3.77197265625,2.67333984375t2.508544921875,3.936767578125t0.897216796875,4.705810546875q0,0.6591796875-0.897216796875,0.823974609375t-1.263427734375,0.164794921875q-0.6591796875,0-1.263427734375-0.10986328125t-0.897216796875-0.87890625q-0.5126953125-1.42822265625-1.080322265625-3.0029296875t-1.3916015625-2.874755859375t-2.032470703125-2.142333984375q-1.0986328125-0.732421875-2.783203125-0.732421875l-0.29296875,0q-3.076171875,0.0732421875-4.57763671875,2.197265625t-2.069091796875,5.16357421875t-0.567626953125,6.4453125l0,6.04248046875q0,1.50146484375,0.10986328125,4.35791015625t0.531005859375,6.2255859375t1.0986328125,6.866455078125t1.8310546875,6.3720703125t2.764892578125,4.6875t3.8818359375,1.812744140625q2.01416015625,0,3.515625-1.3916015625t2.581787109375-3.570556640625t1.8310546875-4.87060546875t1.2451171875-5.401611328125t0.750732421875-5.035400390625t0.40283203125-3.826904296875q-0.40283203125-0.03662109375-0.76904296875-0.03662109375q-1.72119140625,0-3.369140625,0.54931640625q-2.08740234375,0.62255859375-4.1748046875,0.62255859375q-0.29296875,0-0.787353515625-0.03662109375t-0.933837890625-0.18310546875t-0.787353515625-0.421142578125t-0.347900390625-0.714111328125q0-0.84228515625,1.849365234375-1.42822265625t4.21142578125-1.007080078125t4.559326171875-0.604248046875t2.89306640625-0.18310546875q0.3662109375,0,1.043701171875,0.0732421875t1.35498046875,0.25634765625t1.153564453125,0.531005859375t0.47607421875,0.860595703125q0,0.439453125-0.32958984375,0.787353515625t-0.823974609375,0.531005859375t-1.007080078125,0.25634765625t-0.8056640625,0.0732421875q0.03662109375,0.84228515625,0.03662109375,1.72119140625q0,1.9775390625-0.10986328125,4.21142578125q-0.18310546875,3.22265625-0.732421875,6.4453125t-1.6845703125,6.26220703125t-2.89306640625,5.364990234375t-4.339599609375,3.753662109375t-6.134033203125,1.42822265625q-3.8818359375,0-6.55517578125-1.64794921875t-4.35791015625-4.39453125t-2.618408203125-6.2255859375t-1.336669921875-7.122802734375t-0.494384765625-7.086181640625t-0.091552734375-6.2255859375z M171.1318359375,87.3291015625q0-1.72119140625,0.421142578125-2.508544921875t1.20849609375-1.0986328125t1.904296875-0.238037109375t2.618408203125,0.0732421875q3.80859375,0,7.6904296875,1.171875t6.99462890625,3.424072265625t5.01708984375,5.548095703125t1.904296875,7.58056640625q0,2.8564453125-0.823974609375,5.401611328125t-2.325439453125,4.7607421875t-3.515625,4.046630859375t-4.43115234375,3.18603515625q0.98876953125,0.98876953125,2.5634765625,3.497314453125t3.11279296875,5.3466796875t2.728271484375,5.511474609375t1.409912109375,4.0283203125l-0.439453125,0.6591796875q-0.98876953125,0.5859375-2.38037109375,0.62255859375q-0.6591796875,0-1.72119140625-0.164794921875t-1.35498046875-0.970458984375q-1.50146484375-4.21142578125-3.277587890625-8.67919921875t-4.376220703125-8.056640625l0-0.0732421875q-0.91552734375,0.3662109375-1.812744140625,0.714111328125t-1.812744140625,0.640869140625q0.29296875,4.06494140625,0.604248046875,8.001708984375t0.311279296875,7.965087890625q0,0.5126953125-0.494384765625,0.823974609375t-1.116943359375,0.494384765625t-1.263427734375,0.25634765625t-1.043701171875,0.0732421875q-0.3662109375,0-1.043701171875-0.0732421875t-1.300048828125-0.25634765625t-1.080322265625-0.531005859375t-0.457763671875-0.933837890625q0-4.06494140625-0.18310546875-8.111572265625t-0.40283203125-8.074951171875q-1.13525390625-0.732421875-1.13525390625-1.904296875q0-0.91552734375,0.87890625-1.2451171875q-0.439453125-7.72705078125-1.007080078125-15.41748046875t-0.567626953125-15.49072265625z M177.76025390625,86.19384765625q0.5126953125,7.94677734375,1.153564453125,15.71044921875t1.226806640625,15.71044921875q2.5634765625-0.732421875,4.779052734375-2.545166015625t3.826904296875-4.083251953125t2.508544921875-4.94384765625t0.897216796875-5.31005859375q0-2.9296875-1.171875-5.621337890625t-3.11279296875-4.705810546875q-1.9775390625-2.01416015625-4.541015625-3.1494140625q-2.2705078125-0.98876953125-4.7607421875-0.98876953125l-0.6591796875,0z M206.16613769531,136.65771484375q0-0.2197265625,0.146484375-1.556396484375t0.384521484375-3.25927734375t0.531005859375-4.13818359375t0.5126953125-4.193115234375t0.384521484375-3.47900390625t0.164794921875-2.01416015625q-0.29296875-0.146484375-0.714111328125-0.421142578125t-0.421142578125-0.640869140625q0-0.5126953125,0.494384765625-0.823974609375t0.860595703125-0.457763671875q0.146484375-1.86767578125,0.3662109375-5.2001953125t0.677490234375-7.196044921875t1.28173828125-7.8369140625t2.178955078125-7.21435546875t3.25927734375-5.291748046875t4.6875-2.05078125t4.6142578125,1.7578125t2.984619140625,4.57763671875t1.7578125,6.26220703125t0.91552734375,6.84814453125t0.384521484375,6.3720703125t0.146484375,4.7607421875q0.0732421875,1.13525390625,0.54931640625,1.519775390625t1.043701171875,0.531005859375t1.025390625,0.32958984375t0.457763671875,0.91552734375q0,0.84228515625-1.025390625,1.171875t-1.611328125,0.40283203125q0.3662109375,4.57763671875,1.007080078125,9.0087890625t1.702880859375,8.935546875q0.146484375,0.84228515625,0.40283203125,1.702880859375t0.25634765625,1.666259765625q0,0.5859375-0.40283203125,0.970458984375t-1.043701171875,0.604248046875t-1.28173828125,0.29296875t-1.080322265625,0.0732421875q-1.64794921875,0-2.783203125-0.62255859375t-1.50146484375-2.38037109375q-0.98876953125-4.72412109375-1.94091796875-9.92431640625q-0.8056640625-4.50439453125-0.8056640625-8.75244140625q0-0.6591796875,0.03662109375-1.318359375q-3.076171875,0-6.18896484375,0.146484375t-5.96923828125,1.0986328125q-0.0732421875,0.98876953125-0.3662109375,3.7353515625t-0.6591796875,5.89599609375t-0.750732421875,6.024169921875t-0.457763671875,4.083251953125q-0.0732421875,0.5126953125-0.750732421875,0.970458984375t-1.46484375,0.494384765625t-1.3916015625-0.494384765625t-0.604248046875-1.885986328125z M213.01428222656,114.46533203125q2.8564453125-0.6591796875,5.731201171875-0.76904296875t5.804443359375-0.25634765625q-0.146484375-0.91552734375-0.0732421875-1.885986328125t0.0732421875-1.959228515625q0-2.16064453125-0.10986328125-5.01708984375t-0.32958984375-5.7861328125t-0.567626953125-5.767822265625t-0.787353515625-5.0537109375t-0.933837890625-3.533935546875t-1.080322265625-1.318359375q-1.13525390625,0.0732421875-2.142333984375,1.959228515625t-1.8310546875,4.79736328125t-1.50146484375,6.5185546875t-1.13525390625,7.049560546875t-0.750732421875,6.40869140625t-0.3662109375,4.6142578125z M243.14135742188,131.5673828125q-0.03662109375-1.0986328125-0.03662109375-2.197265625q0-3.4423828125,0.3662109375-6.92138671875q0.439453125-4.6142578125,0.5859375-9.08203125q0.146484375-5.23681640625,0.439453125-10.87646484375q0.18310546875-3.076171875,0.18310546875-6.0791015625q0-2.45361328125-0.10986328125-4.87060546875q0.3662109375-0.84228515625,0.970458984375-1.13525390625t1.519775390625-0.29296875q0.439453125,0,0.933837890625,0.0732421875t0.860595703125,0.3662109375q0.5126953125,0.0732421875,1.263427734375,0.146484375t1.153564453125,0.439453125q0.146484375,0.2197265625,0.750732421875,1.50146484375t1.42822265625,3.11279296875t1.72119140625,3.973388671875t1.72119140625,4.06494140625t1.42822265625,3.387451171875t0.750732421875,1.8310546875q3.4423828125-6.2255859375,6.73828125-12.799072265625t7.21435546875-12.396240234375q0.3662109375-0.5126953125,1.263427734375-0.750732421875t1.483154296875-0.238037109375q1.57470703125,0,2.288818359375,0.750732421875t0.933837890625,1.922607421875q0.146484375,0.732421875,0.18310546875,1.57470703125q0.03662109375,0.439453125-0.03662109375,0.91552734375q-0.146484375,1.35498046875-0.146484375,2.5634765625q0,8.53271484375-0.5859375,16.937255859375t-1.06201171875,16.973876953125q-0.0732421875,1.7578125-0.0732421875,3.662109375t0.0732421875,3.955078125q0.03662109375,0.732421875,0.03662109375,1.42822265625q0,3.22265625-0.54931640625,6.005859375q-0.5126953125,0.84228515625-1.6845703125,1.06201171875t-1.9775390625,0.2197265625q-1.72119140625,0-3.2958984375-0.8056640625l-0.40283203125-0.47607421875l-0.146484375-0.5859375t-0.0732421875-0.5859375q0-5.31005859375,0.384521484375-10.693359375t0.860595703125-10.748291015625t1.007080078125-10.711669921875t0.897216796875-10.693359375q-2.16064453125,3.5888671875-4.193115234375,7.305908203125t-3.826904296875,7.562255859375q-0.6591796875,1.50146484375-1.263427734375,3.22265625t-1.446533203125,3.076171875q-0.439453125,0.6591796875-1.483154296875,0.8056640625t-1.812744140625,0.146484375q-0.732421875,0-1.519775390625-0.25634765625t-1.080322265625-1.0986328125q-1.35498046875-4.13818359375-2.89306640625-8.09326171875t-3.11279296875-8.02001953125q0,2.7099609375,0.10986328125,7.012939453125t0.10986328125,8.917236328125t-0.146484375,8.82568359375t-0.69580078125,6.6650390625q-0.146484375,0.91552734375-1.190185546875,1.13525390625t-1.812744140625,0.2197265625q-0.5859375,0-1.116943359375-0.0732421875t-1.043701171875-0.29296875z M286.63513183594,136.9873046875q0.146484375-7.65380859375,0.640869140625-15.27099609375t0.860595703125-15.27099609375q0.0732421875-2.9296875,0.0732421875-5.328369140625t0.238037109375-4.156494140625t0.87890625-2.691650390625t2.142333984375-0.933837890625q1.28173828125,0,1.94091796875,0.3662109375t1.007080078125,0.933837890625t0.421142578125,1.28173828125t0.0732421875,1.446533203125q0,1.06201171875,0.0732421875,2.105712890625t0.0732421875,2.105712890625q0,7.72705078125-0.421142578125,15.41748046875t-0.421142578125,15.49072265625q0,1.13525390625,0.03662109375,2.288818359375t0.03662109375,2.362060546875q0,0.439453125-0.40283203125,0.732421875t-1.007080078125,0.494384765625t-1.28173828125,0.274658203125t-1.116943359375,0.0732421875q-0.5126953125,0-1.153564453125-0.0732421875t-1.2451171875-0.311279296875t-1.025390625-0.567626953125t-0.421142578125-0.76904296875z M288.68591308594,87.3291015625q0-0.3662109375,0.10986328125-0.823974609375t0.25634765625-0.823974609375q0.0732421875-0.439453125,0.2197265625-1.50146484375t0.531005859375-2.069091796875t1.06201171875-1.79443359375t1.922607421875-0.787353515625l0.69580078125,0q0.5859375,0.146484375,1.190185546875,0.3662109375t0.604248046875,1.06201171875q0,0.3662109375-0.03662109375,0.69580078125t-0.10986328125,0.732421875q-0.29296875,2.16064453125-0.567626953125,3.40576171875t-0.640869140625,1.885986328125t-0.933837890625,0.823974609375t-1.446533203125,0.25634765625q-0.29296875,0-0.787353515625-0.03662109375t-0.9521484375-0.18310546875t-0.787353515625-0.457763671875t-0.32958984375-0.750732421875z M302.77294921875,89.56298828125q0-0.439453125,0.421142578125-0.6591796875t0.91552734375-0.32958984375t0.897216796875-0.10986328125l0.40283203125,0q1.28173828125,0,1.849365234375,0.5859375t1.373291015625,1.50146484375q5.4931640625,7.94677734375,10.07080078125,16.351318359375t8.82568359375,17.010498046875q0.3662109375-10.0341796875,0.750732421875-20.196533203125t0.970458984375-20.159912109375q0-0.439453125,0.421142578125-0.732421875t0.9521484375-0.439453125t1.080322265625-0.18310546875t0.84228515625-0.03662109375q0.439453125,0,0.970458984375,0.03662109375t1.06201171875,0.2197265625t0.87890625,0.439453125t0.347900390625,0.69580078125q0.146484375,1.57470703125,0.164794921875,3.167724609375t0.018310546875,3.167724609375q0,11.7919921875-0.5126953125,23.10791015625t-0.5126953125,22.8515625l0,2.63671875q0,0.146484375-0.146484375,0.439453125q0.0732421875,0.29296875,0.2197265625,0.640869140625t0.146484375,0.494384765625q0,0.5859375-0.604248046875,0.87890625t-1.318359375,0.457763671875t-1.263427734375,0.164794921875t-0.40283203125,0q-1.86767578125,0-3.1494140625-1.025390625t-1.28173828125-2.45361328125q-2.7099609375-6.0791015625-5.401611328125-12.066650390625t-5.621337890625-11.920166015625q-1.86767578125-3.7353515625-3.753662109375-7.489013671875t-4.046630859375-7.269287109375q0.0732421875,0.0732421875,0.0732421875,0.2197265625q0.3662109375,3.662109375,0.787353515625,7.305908203125t0.640869140625,7.305908203125q0.146484375,3.1494140625,0.32958984375,6.3720703125t0.5859375,6.3720703125q0,1.20849609375-0.750732421875,1.5380859375t-1.739501953125,0.32958984375q-0.84228515625,0-1.593017578125-0.2197265625t-0.897216796875-1.0986328125q0-3.369140625-0.25634765625-7.159423828125t-0.47607421875-7.635498046875q-0.3662109375-5.09033203125-0.970458984375-10.345458984375t-0.604248046875-10.272216796875q0-0.2197265625,0.03662109375-0.457763671875t0.03662109375-0.531005859375q-0.2197265625-0.3662109375-0.494384765625-0.76904296875t-0.274658203125-0.732421875z M341.21301269531,85.38818359375q0-0.5126953125,0.714111328125-0.787353515625t0.933837890625-0.274658203125l1.35498046875-0.2197265625q1.35498046875-0.2197265625,2.74658203125-0.384521484375t2.7099609375-0.311279296875q4.65087890625-0.5859375,9.3017578125-1.153564453125t9.375-0.567626953125q0.3662109375,0,1.007080078125,0.03662109375t1.28173828125,0.201416015625t1.0986328125,0.457763671875t0.457763671875,0.8056640625q0,0.3662109375-0.347900390625,0.640869140625t-0.823974609375,0.421142578125t-0.970458984375,0.18310546875t-0.787353515625,0.03662109375l-0.640869140625,0t-0.640869140625-0.146484375q-1.94091796875,0-3.826904296875,0.18310546875t-3.826904296875,0.32958984375q0.5126953125,0.5859375,0.54931640625,1.64794921875t0.0732421875,1.8310546875q0,12.9638671875,0.18310546875,25.78125t0.32958984375,25.89111328125l0,0.0732421875q-1.20849609375,1.06201171875-2.069091796875,1.35498046875t-1.739501953125,0.29296875q-0.84228515625,0-1.702880859375-0.311279296875t-2.069091796875-1.336669921875l0-0.0732421875l0.29296875-28.74755859375q0-2.8564453125-0.0732421875-6.298828125t-0.0732421875-6.976318359375t0.10986328125-6.829833984375t0.5859375-5.74951171875q-2.16064453125,0.2197265625-4.57763671875,0.6591796875q-2.08740234375,0.3662109375-3.99169921875,0.3662109375l-0.6591796875,0q-0.146484375,0-0.860595703125,0.03662109375t-1.46484375-0.03662109375t-1.35498046875-0.29296875t-0.604248046875-0.732421875z"/><path fill="#" d=""/></svg>
